<svg width="33" height="32" viewBox="0 0 33 32" fill="none" xmlns="http://www.w3.org/2000/svg">
<g clip-path="url(#clip0_6923_9770)">
<path d="M16.5 17.5C17.3284 17.5 18 16.8284 18 16C18 15.1716 17.3284 14.5 16.5 14.5C15.6716 14.5 15 15.1716 15 16C15 16.8284 15.6716 17.5 16.5 17.5Z" fill="#757575"/>
<path d="M11 17.5C11.8284 17.5 12.5 16.8284 12.5 16C12.5 15.1716 11.8284 14.5 11 14.5C10.1716 14.5 9.5 15.1716 9.5 16C9.5 16.8284 10.1716 17.5 11 17.5Z" fill="#757575"/>
<path d="M22 17.5C22.8284 17.5 23.5 16.8284 23.5 16C23.5 15.1716 22.8284 14.5 22 14.5C21.1716 14.5 20.5 15.1716 20.5 16C20.5 16.8284 21.1716 17.5 22 17.5Z" fill="#757575"/>
<path d="M6.14375 28.7638C5.9981 28.8863 5.8205 28.9647 5.63183 28.9898C5.44315 29.0149 5.25124 28.9856 5.07862 28.9054C4.90601 28.8252 4.75987 28.6974 4.65738 28.537C4.55488 28.3766 4.50028 28.1903 4.5 28V8C4.5 7.73478 4.60536 7.48043 4.79289 7.29289C4.98043 7.10536 5.23478 7 5.5 7H27.5C27.7652 7 28.0196 7.10536 28.2071 7.29289C28.3946 7.48043 28.5 7.73478 28.5 8V24C28.5 24.2652 28.3946 24.5196 28.2071 24.7071C28.0196 24.8946 27.7652 25 27.5 25H10.5L6.14375 28.7638Z" stroke="#757575" stroke-width="2" stroke-linecap="round" stroke-linejoin="round"/>
</g>
<defs>
<clipPath id="clip0_6923_9770">
<rect width="32" height="32" fill="white" transform="translate(0.5)"/>
</clipPath>
</defs>
</svg>
