<?xml version="1.0" encoding="UTF-8"?>
<svg id="Layer_1" data-name="Layer 1" xmlns="http://www.w3.org/2000/svg" xmlns:xlink="http://www.w3.org/1999/xlink" viewBox="0 0 727.97 560.2">
  <defs>
    <style>
      .cls-1 {
        fill: none;
      }

      .cls-2 {
        fill: url(#linear-gradient);
      }

      .cls-3 {
        clip-path: url(#clippath);
      }

      .cls-4 {
        fill: #004d9d;
      }

      .cls-5 {
        fill: #fff;
      }

      .cls-6 {
        clip-path: url(#clippath-1);
      }

      .cls-7 {
        clip-path: url(#clippath-3);
      }

      .cls-8 {
        clip-path: url(#clippath-2);
      }

      .cls-9 {
        fill: url(#linear-gradient-3);
      }

      .cls-10 {
        fill: url(#linear-gradient-4);
      }

      .cls-11 {
        fill: url(#linear-gradient-2);
      }
    </style>
    <clipPath id="clippath">
      <path class="cls-1" d="M258.38,103.36c-16.07,16.07-16.07,42.13,0,58.21,16.07,16.07,42.13,16.07,58.21,0,16.07-16.07,16.07-42.13,0-58.21-8.04-8.04-18.57-12.06-29.1-12.06s-21.07,4.02-29.1,12.06"/>
    </clipPath>
    <linearGradient id="linear-gradient" x1="-103.7" y1="1344.23" x2="-102.58" y2="1344.23" gradientTransform="translate(30226.77 389395.01) scale(289.58 -289.58)" gradientUnits="userSpaceOnUse">
      <stop offset="0" stop-color="#5eb130"/>
      <stop offset="1" stop-color="#004d9d"/>
    </linearGradient>
    <clipPath id="clippath-1">
      <path class="cls-1" d="M195.7,203.35c3.91,16.43,12.26,32.03,25.04,44.81,35.28,35.33,91.89,36.76,128.9,4.28-7.87-9.85-14.03-20.93-18.25-32.81-.87,1.02-1.79,2-2.75,2.97-22.72,22.73-59.61,22.73-82.33,0-7.76-7.77-12.86-17.17-15.32-27.1-1.02-4.1-3.31-7.62-6.4-10.11-3.09-2.51-6.99-3.97-11.21-3.97-11.54,0-20.34,10.71-17.68,21.94"/>
    </clipPath>
    <linearGradient id="linear-gradient-2" x1="-103.7" y1="1344.27" x2="-102.58" y2="1344.27" gradientTransform="translate(25328.28 326029.91) scale(242.36 -242.36)" xlink:href="#linear-gradient"/>
    <clipPath id="clippath-2">
      <path class="cls-1" d="M409.55,103.36c-16.07,16.07-16.07,42.13,0,58.21,16.07,16.07,42.13,16.07,58.21,0,16.07-16.07,16.07-42.13,0-58.21-8.04-8.04-18.57-12.06-29.1-12.06s-21.07,4.02-29.1,12.06"/>
    </clipPath>
    <linearGradient id="linear-gradient-3" x1="-103.7" x2="-102.58" xlink:href="#linear-gradient"/>
    <clipPath id="clippath-3">
      <path class="cls-1" d="M512.74,181.41c-8.43,0-15.57,5.88-17.61,14.07-2.46,9.93-7.58,19.34-15.32,27.11-22.71,22.73-59.6,22.73-82.32,0-.95-.95-1.87-1.94-2.75-2.94-6.22-7.15-10.42-15.45-12.57-24.16-1.02-4.1-3.31-7.62-6.4-10.11-3.1-2.51-7-3.97-11.22-3.97-.5,0-1,.02-1.48,.06h-.03c-10.77,.9-18.71,11.15-16.15,21.88,2.91,12.28,8.31,24.09,16.19,34.61,2.66,3.56,5.62,6.96,8.85,10.2,1.49,1.49,3.01,2.92,4.58,4.29,37.01,32.47,93.59,31.04,128.89-4.29,12.81-12.78,21.15-28.38,25.04-44.82,2.65-11.23-6.13-21.93-17.68-21.93h-.01Z"/>
    </clipPath>
    <linearGradient id="linear-gradient-4" x1="-103.7" y1="1344.18" x2="-102.58" y2="1344.18" gradientTransform="translate(30226.63 389479.09) scale(289.58 -289.58)" xlink:href="#linear-gradient"/>
  </defs>
  <g>
    <g class="cls-3">
      <rect class="cls-2" x="242.3" y="91.3" width="90.36" height="86.34"/>
    </g>
    <path class="cls-5" d="M331.4,219.63c4.22,11.88,10.38,22.96,18.25,32.81-37.01,32.49-93.62,31.05-128.9-4.28-12.78-12.78-21.13-28.38-25.04-44.81-2.66-11.23,6.13-21.94,17.68-21.94,4.22,0,8.12,1.47,11.21,3.97,3.09,2.49,5.38,6.01,6.4,10.11,2.46,9.93,7.57,19.33,15.32,27.1,22.72,22.72,59.61,22.72,82.33,0,.96-.96,1.88-1.95,2.75-2.97"/>
    <g class="cls-6">
      <rect class="cls-11" x="193.04" y="181.41" width="156.6" height="103.51"/>
    </g>
    <g class="cls-8">
      <rect class="cls-9" x="393.47" y="91.3" width="90.35" height="86.34"/>
    </g>
    <g class="cls-7">
      <rect class="cls-10" x="344.33" y="181.41" width="188.75" height="103.51"/>
    </g>
  </g>
  <g>
    <path class="cls-4" d="M218.79,355.53c-1.88-2.12-4.03-3.86-6.45-5.21-4.38-2.44-9.33-3.67-14.86-3.67-6.36,0-12.09,1.41-17.16,4.22-5.08,2.8-9.06,6.72-11.96,11.76-2.89,5.04-4.33,10.99-4.33,17.84s1.44,12.8,4.33,17.84c2.9,5.04,6.88,8.99,11.96,11.84,5.08,2.85,10.8,4.28,17.16,4.28,5.7,0,10.74-1.24,15.12-3.72,2.6-1.49,4.88-3.41,6.81-5.79v8.64h14.74v-91.93h-15.36v33.89Zm-2.42,35.98c-1.77,3.15-4.13,5.54-7.06,7.19-2.93,1.66-6.26,2.47-9.98,2.47s-7.03-.82-9.98-2.47c-2.93-1.65-5.29-4.04-7.06-7.19-1.77-3.14-2.66-6.81-2.66-11.02s.88-7.99,2.66-11.09c1.77-3.1,4.13-5.47,7.06-7.13,2.94-1.65,6.26-2.47,9.98-2.47s7.05,.83,9.98,2.47c2.93,1.66,5.29,4.03,7.06,7.13,1.77,3.1,2.67,6.8,2.67,11.09s-.89,7.89-2.67,11.02"/>
    <path class="cls-4" d="M259.3,317.92c-2.89,0-5.27,.88-7.13,2.66-1.85,1.79-2.79,3.99-2.79,6.63s.93,4.75,2.79,6.57c1.85,1.81,4.24,2.72,7.13,2.72s5.36-.92,7.19-2.79c1.81-1.85,2.72-4.15,2.72-6.88,0-2.55-.93-4.68-2.79-6.37-1.87-1.7-4.24-2.54-7.13-2.54"/>
    <rect class="cls-4" x="251.49" y="347.4" width="15.49" height="66.16"/>
    <path class="cls-4" d="M331.7,353.53c-5.23-4.59-12.66-6.88-22.23-6.88-5.29,0-10.39,.69-15.3,2.05-4.92,1.36-9.15,3.41-12.7,6.14l6.06,11.27c2.47-2.06,5.52-3.68,9.11-4.83,3.59-1.15,7.25-1.74,10.96-1.74,5.53,0,9.66,1.26,12.4,3.78,2.72,2.51,4.08,6.05,4.08,10.58v1h-17.09c-6.7,0-12.06,.87-16.12,2.6-4.04,1.74-6.96,4.08-8.73,7.06-1.77,2.97-2.66,6.32-2.66,10.03s1.01,7.22,3.03,10.22c2.02,3.02,4.9,5.38,8.6,7.07,3.72,1.68,8.06,2.54,13.02,2.54,5.86,0,10.71-1.08,14.55-3.23,2.66-1.49,4.74-3.38,6.26-5.69v8.04h14.63v-38.79c0-9.57-2.63-16.66-7.88-21.25m-14.12,47.03c-3.02,1.72-6.43,2.59-10.22,2.59s-7.06-.82-9.29-2.47c-2.23-1.65-3.34-3.89-3.34-6.68,0-2.49,.91-4.57,2.72-6.26,1.81-1.7,5.38-2.54,10.66-2.54h15.97v7.68c-1.32,3.38-3.48,5.95-6.5,7.68"/>
    <path class="cls-4" d="M398.61,379.56c-2.44-1.28-5.1-2.29-7.99-3.04-2.89-.74-5.8-1.3-8.73-1.67-2.94-.38-5.6-.84-7.99-1.43-2.4-.57-4.34-1.36-5.83-2.36-1.48-.98-2.23-2.47-2.23-4.46,0-2.15,1.14-3.93,3.41-5.32,2.27-1.4,5.76-2.11,10.47-2.11,3.14,0,6.3,.36,9.48,1.06,3.17,.7,6.33,2,9.47,3.9l5.95-11.78c-2.97-1.81-6.72-3.21-11.27-4.21-4.53-.98-9.04-1.49-13.5-1.49-5.95,0-11.09,.85-15.43,2.54-4.34,1.7-7.7,4.09-10.09,7.19-2.4,3.1-3.6,6.75-3.6,10.97,0,3.8,.75,6.85,2.24,9.16,1.48,2.32,3.42,4.16,5.82,5.52,2.4,1.36,5.07,2.4,7.99,3.1,2.93,.7,5.87,1.26,8.8,1.67,2.93,.41,5.6,.87,7.99,1.36,2.4,.49,4.33,1.22,5.82,2.16,1.49,.96,2.23,2.34,2.23,4.16,0,2.23-1.09,4-3.28,5.32-2.19,1.32-5.73,1.98-10.6,1.98-4.13,0-8.25-.62-12.38-1.85-4.13-1.24-7.68-2.81-10.66-4.72l-5.95,11.78c2.98,2.06,7.01,3.82,12.09,5.26,5.08,1.45,10.38,2.18,15.92,2.18,6.19,0,11.52-.86,15.97-2.54,4.47-1.7,7.92-4.07,10.35-7.13,2.44-3.06,3.65-6.65,3.65-10.78,0-3.72-.74-6.74-2.23-9.04-1.49-2.32-3.45-4.12-5.88-5.39"/>
    <path class="cls-4" d="M470.96,410.21c4.99-2.8,8.95-6.75,11.89-11.83,2.93-5.08,4.39-11.04,4.39-17.9s-1.46-12.8-4.39-17.84c-2.94-5.04-6.9-8.96-11.89-11.76-5-2.81-10.77-4.22-17.28-4.22-5.62,0-10.62,1.23-15,3.67-2.66,1.48-4.96,3.42-6.93,5.82v-8.73h-14.74v90.19h15.48v-32.15c1.89,2.14,4.05,3.9,6.5,5.27,4.42,2.47,9.31,3.72,14.69,3.72,6.52,0,12.28-1.41,17.28-4.22m-29.06-11.52c-2.97-1.65-5.32-4.04-7.06-7.19-1.74-3.14-2.6-6.81-2.6-11.02s.87-7.99,2.6-11.09c1.74-3.1,4.09-5.47,7.06-7.13,2.98-1.65,6.32-2.47,10.04-2.47s7.03,.83,9.98,2.47c2.93,1.66,5.26,4.03,7,7.13,1.74,3.1,2.6,6.8,2.6,11.09s-.87,7.89-2.6,11.02c-1.74,3.15-4.07,5.54-7,7.19-2.94,1.66-6.26,2.47-9.98,2.47s-7.06-.82-10.04-2.47"/>
    <path class="cls-4" d="M559.42,362.88c-3.02-5.04-7.19-9-12.51-11.89-5.32-2.89-11.43-4.34-18.28-4.34s-12.8,1.45-18.08,4.34c-5.29,2.89-9.46,6.88-12.51,11.96-3.06,5.08-4.59,10.92-4.59,17.53s1.53,12.35,4.59,17.48c3.06,5.12,7.23,9.15,12.51,12.07,5.29,2.93,11.31,4.4,18.08,4.4s12.95-1.48,18.28-4.4c5.32-2.93,9.5-6.96,12.51-12.07,3.01-5.13,4.52-10.95,4.52-17.48s-1.52-12.55-4.52-17.59m-13.63,28.62c-1.7,3.15-4.03,5.54-7.01,7.19-2.97,1.66-6.36,2.47-10.16,2.47s-7.03-.82-9.98-2.47c-2.93-1.65-5.26-4.04-7-7.19-1.74-3.14-2.6-6.81-2.6-11.02s.87-7.99,2.6-11.09c1.74-3.1,4.07-5.47,7-7.13,2.94-1.65,6.3-2.47,10.1-2.47s7.06,.83,10.03,2.47c2.98,1.66,5.31,4.03,7.01,7.13,1.68,3.1,2.54,6.8,2.54,11.09s-.85,7.89-2.54,11.02"/>
    <path class="cls-4" d="M470.6,426.03c-3.33,0-6.08,1.57-7.96,2.51-.26-.05-.5-.44-.5-.87,0-.63,0-1.32,.12-2.07-.25-.56-.87-.82-1.32-.75-1.74,1.19-6.46,3.2-9.02,3.95-.45,.38-.45,1.5,0,1.88l.87,.56c1.2,.76,1.2,1.51,1.2,4.02v25.48c0,4.39-.26,4.96-2.33,5.15l-1.25,.12c-.5,.37-.5,1.81,.07,2.19,2.25-.12,4.7-.19,7.47-.19,2.94,0,5.45,.07,8.59,.19,.57-.38,.57-1.83,.07-2.19l-2.14-.19c-2.07-.19-2.32-.7-2.32-5.08v-6.22c0-1.31,.38-1.69,.94-1.81,.56,.12,1.95,.19,2.82,.19,9.16,0,15.38-6.09,15.38-14.87,0-6.79-4.02-12-10.67-12m-4.01,23.98c-1.01,0-2.19-.57-3.01-1.44-.94-.94-1.44-2.26-1.44-3.64v-10.05c0-2.44,.38-3.26,.7-3.64,.49-.63,1.57-.87,2.63-.87,4.14,0,7.16,3.52,7.16,9.67s-2.14,9.98-6.03,9.98"/>
    <path class="cls-4" d="M497.09,449.88c-2.19-.26-2.45-.75-2.45-5.15v-27.99c0-3.95,.07-6.58,.19-9.16-.25-.31-.68-.44-1.06-.44-3.14,1.38-6.9,2.88-9.61,3.5-.44,.38-.44,1.51,0,1.89l1.08,.63c1.25,.75,1.25,1.43,1.25,3.95v27.6c0,4.4-.26,4.96-2.33,5.15l-1.19,.12c-.5,.37-.5,1.81,.07,2.19,2.19-.12,4.83-.19,7.52-.19s5.47,.07,7.54,.19c.56-.38,.56-1.83,.05-2.19l-1.06-.12Z"/>
    <path class="cls-4" d="M531.42,448.56c-.75,.25-1.69,.5-2.51,.5-1.51,0-1.7-1.64-1.7-5.33v-11.42c0-2.33,.14-4.4,.19-5.52-.05-.45-.37-.76-.63-.76-.37,0-2.26,.7-4.46,1.01-2,.25-4.27,.5-6.52,.63-.76,.25-.82,1.76-.31,2.19l.87,.12c2.26,.31,2.7,.89,2.7,3.39v11.86c0,.63-.26,1.57-.7,1.88-.5,.38-1.5,1.2-3.26,1.2-4.02,0-4.46-2.64-4.46-5.66v-10.35c0-2.26,.07-3.95,.19-5.52-.07-.31-.38-.76-.75-.76-.26,0-2.07,.76-3.95,1.08-1.83,.31-4.02,.49-6.09,.56-.63,.44-.7,1.64-.25,2.19l.82,.26c1.5,.44,1.88,.75,1.88,4.08v10.66c0,5.34,2.13,8.04,7.33,8.04,3.9,0,6.09-1.44,8.53-3.01,.38,0,.7,.25,.7,.63,0,.5-.07,1.5-.19,2.25,.07,.38,.31,.7,.75,.76,.19,0,5.47-2.02,11.61-2.26,.82-.31,.75-2.58,.19-2.7"/>
    <path class="cls-4" d="M553.94,428.36c-2.32-1.25-5.64-2.33-9.35-2.33-8.15,0-12.23,4.89-12.23,10.1,0,3.83,2.19,6.84,5.33,8.1,.31,.57,.07,.94-.5,1.39-.38,.37-2.26,1.81-4.02,2.94-.31,.31-.44,.82-.44,1.32,0,2.19,1.57,4.27,3.9,5.02,.49,.12,.68,.44-.07,.87-.7,.38-1.81,1.2-3.08,1.95-1.06,.63-2,1.64-2,3.14,0,3.9,3.27,8.04,12.3,8.04,3.64,0,7.73-.82,10.99-2.77,3.26-2,5.64-5.52,5.64-9.47,0-6.34-5.02-7.59-9.72-7.59-2.96,0-5.52,.12-7.66,.12-1.88,0-3.2-.87-3.2-2.26,0-.75,.45-1.25,1.08-1.5,.68,.05,1.57,.19,2.56,.19,9.92,0,12.87-6.03,12.87-10.99,0-1.06-.05-1.64-.19-2.19h4.65c.63-.38,.94-1.51,.94-2.51,0-.7-.12-1.2-.56-1.57h-7.22Zm-13.99,27.99c.56-.44,1.81-.82,3.5-.82h4.21c3.45,0,6.15,1.44,6.15,5.08,0,3.01-2.63,4.96-6.58,4.96-4.96,0-8.17-2.77-8.17-7.03,0-.82,.26-1.64,.89-2.19m4.89-13.56c-2.51,0-4.34-2.94-4.34-7.72,0-4.27,1.88-6.15,3.83-6.15,2.26,0,4.08,2.39,4.08,7.47,0,4.58-1.64,6.39-3.57,6.39"/>
  </g>
</svg>