<svg width="33" height="32" viewBox="0 0 33 32" fill="none" xmlns="http://www.w3.org/2000/svg">
<g clip-path="url(#clip0_6923_6440)">
<path d="M13.5 27V19H19.5V27H27.5V15C27.5001 14.8686 27.4743 14.7385 27.4241 14.6171C27.3739 14.4957 27.3003 14.3854 27.2075 14.2925L17.2075 4.29249C17.1146 4.19952 17.0043 4.12576 16.8829 4.07543C16.7615 4.02511 16.6314 3.99921 16.5 3.99921C16.3686 3.99921 16.2385 4.02511 16.1171 4.07543C15.9957 4.12576 15.8854 4.19952 15.7925 4.29249L5.7925 14.2925C5.69967 14.3854 5.62605 14.4957 5.57586 14.6171C5.52568 14.7385 5.4999 14.8686 5.5 15V27H13.5Z" stroke="#757575" stroke-width="2" stroke-linecap="round" stroke-linejoin="round"/>
</g>
<defs>
<clipPath id="clip0_6923_6440">
<rect width="32" height="32" fill="white" transform="translate(0.5)"/>
</clipPath>
</defs>
</svg>
