<?xml version="1.0" encoding="UTF-8"?>
<svg id="Layer_1" data-name="Layer 1" xmlns="http://www.w3.org/2000/svg" xmlns:xlink="http://www.w3.org/1999/xlink" viewBox="0 0 727.97 560.2">
  <defs>
    <style>
      .cls-1 {
        fill: none;
      }

      .cls-2 {
        fill: url(#linear-gradient);
      }

      .cls-3 {
        clip-path: url(#clippath);
      }

      .cls-4 {
        fill: #fff;
      }

      .cls-5 {
        clip-path: url(#clippath-1);
      }

      .cls-6 {
        clip-path: url(#clippath-3);
      }

      .cls-7 {
        clip-path: url(#clippath-2);
      }

      .cls-8 {
        fill: url(#linear-gradient-3);
      }

      .cls-9 {
        fill: url(#linear-gradient-4);
      }

      .cls-10 {
        fill: url(#linear-gradient-2);
      }
    </style>
    <clipPath id="clippath">
      <path class="cls-1" d="M258.38,199.92c-16.07,16.07-16.07,42.13,0,58.21,16.07,16.07,42.13,16.07,58.21,0,16.07-16.07,16.07-42.13,0-58.21-8.04-8.04-18.57-12.06-29.1-12.06s-21.07,4.02-29.1,12.06"/>
    </clipPath>
    <linearGradient id="linear-gradient" x1="-968.29" y1="1343.9" x2="-967.17" y2="1343.9" gradientTransform="translate(280594.6 389395.01) scale(289.58 -289.58)" gradientUnits="userSpaceOnUse">
      <stop offset="0" stop-color="#5eb130"/>
      <stop offset="1" stop-color="#004d9d"/>
    </linearGradient>
    <clipPath id="clippath-1">
      <path class="cls-1" d="M195.7,299.91c3.91,16.43,12.26,32.03,25.04,44.81,35.28,35.33,91.89,36.76,128.9,4.28-7.87-9.85-14.03-20.93-18.25-32.81-.87,1.02-1.79,2-2.75,2.97-22.72,22.73-59.61,22.73-82.33,0-7.76-7.77-12.86-17.17-15.32-27.1-1.02-4.1-3.31-7.62-6.4-10.11-3.09-2.51-6.99-3.97-11.21-3.97-11.54,0-20.34,10.71-17.68,21.94"/>
    </clipPath>
    <linearGradient id="linear-gradient-2" x1="-967.7" y1="1343.88" x2="-966.58" y2="1343.88" gradientTransform="translate(234728.36 326029.91) scale(242.36 -242.36)" xlink:href="#linear-gradient"/>
    <clipPath id="clippath-2">
      <path class="cls-1" d="M409.55,199.92c-16.07,16.07-16.07,42.13,0,58.21,16.07,16.07,42.13,16.07,58.21,0,16.07-16.07,16.07-42.13,0-58.21-8.04-8.04-18.57-12.06-29.1-12.06s-21.07,4.02-29.1,12.06"/>
    </clipPath>
    <linearGradient id="linear-gradient-3" x1="-968.29" x2="-967.17" xlink:href="#linear-gradient"/>
    <clipPath id="clippath-3">
      <path class="cls-1" d="M512.74,277.97c-8.43,0-15.57,5.88-17.61,14.07-2.46,9.93-7.58,19.34-15.32,27.11-22.71,22.73-59.6,22.73-82.32,0-.95-.95-1.87-1.94-2.75-2.94-6.22-7.15-10.42-15.45-12.57-24.16-1.02-4.1-3.31-7.62-6.4-10.11-3.1-2.51-7-3.97-11.22-3.97-.5,0-1,.02-1.48,.06h-.03c-10.77,.9-18.71,11.15-16.15,21.88,2.91,12.28,8.31,24.09,16.19,34.61,2.66,3.56,5.62,6.96,8.85,10.2,1.49,1.49,3.01,2.92,4.58,4.29,37.01,32.47,93.59,31.04,128.89-4.29,12.81-12.78,21.15-28.38,25.04-44.82,2.65-11.23-6.13-21.93-17.68-21.93h-.01Z"/>
    </clipPath>
    <linearGradient id="linear-gradient-4" x1="-968.29" y1="1343.85" x2="-967.17" y2="1343.85" gradientTransform="translate(280593.3 389479.09) scale(289.58 -289.58)" xlink:href="#linear-gradient"/>
  </defs>
  <g class="cls-3">
    <rect class="cls-2" x="242.3" y="187.86" width="90.36" height="86.34"/>
  </g>
  <path class="cls-4" d="M331.4,316.19c4.22,11.88,10.38,22.96,18.25,32.81-37.01,32.49-93.62,31.05-128.9-4.28-12.78-12.78-21.13-28.38-25.04-44.81-2.66-11.23,6.13-21.94,17.68-21.94,4.22,0,8.12,1.47,11.21,3.97,3.09,2.49,5.38,6.01,6.4,10.11,2.46,9.93,7.57,19.33,15.32,27.1,22.72,22.72,59.61,22.72,82.33,0,.96-.96,1.88-1.95,2.75-2.97"/>
  <g class="cls-5">
    <rect class="cls-10" x="193.04" y="277.97" width="156.6" height="103.51"/>
  </g>
  <g class="cls-7">
    <rect class="cls-8" x="393.47" y="187.86" width="90.35" height="86.34"/>
  </g>
  <g class="cls-6">
    <rect class="cls-9" x="344.33" y="277.97" width="188.75" height="103.51"/>
  </g>
</svg>