<svg width="33" height="32" viewBox="0 0 33 32" fill="none" xmlns="http://www.w3.org/2000/svg">
<g clip-path="url(#clip0_6894_1157)">
<path d="M12.5 24C12.5 25.0609 12.9214 26.0783 13.6716 26.8284C14.4217 27.5786 15.4391 28 16.5 28C17.5609 28 18.5783 27.5786 19.3284 26.8284C20.0786 26.0783 20.5 25.0609 20.5 24" stroke="#757575" stroke-width="2" stroke-linecap="round" stroke-linejoin="round"/>
<path d="M7.49997 13C7.49997 10.6131 8.44818 8.32387 10.136 6.63604C11.8238 4.94821 14.113 4 16.5 4C18.8869 4 21.1761 4.94821 22.8639 6.63604C24.5518 8.32387 25.5 10.6131 25.5 13C25.5 17.4775 26.5375 21.075 27.3625 22.5C27.4501 22.6518 27.4963 22.8239 27.4964 22.9991C27.4966 23.1744 27.4507 23.3466 27.3633 23.4985C27.276 23.6504 27.1503 23.7767 26.9987 23.8647C26.8472 23.9527 26.6752 23.9994 26.5 24H6.49997C6.32494 23.9989 6.15326 23.952 6.00207 23.8638C5.85089 23.7756 5.72551 23.6492 5.63845 23.4974C5.55139 23.3456 5.50572 23.1735 5.50598 22.9985C5.50625 22.8235 5.55245 22.6516 5.63997 22.5C6.46372 21.075 7.49997 17.4763 7.49997 13Z" stroke="#757575" stroke-width="2" stroke-linecap="round" stroke-linejoin="round"/>
</g>
<defs>
<clipPath id="clip0_6894_1157">
<rect width="32" height="32" fill="white" transform="translate(0.5)"/>
</clipPath>
</defs>
</svg>
